<mxfile host="Electron" modified="2023-07-20T12:33:00.252Z" agent="Mozilla/5.0 (X11; Linux x86_64) AppleWebKit/537.36 (KHTML, like Gecko) draw.io/21.6.1 Chrome/112.0.5615.204 Electron/24.6.1 Safari/537.36" etag="4dPvHLl_We1HZr0tWjiG" version="21.6.1" type="device">
  <diagram id="6icVsA4TxjqhASaly5wK" name="Page-1">
    <mxGraphModel dx="3937" dy="279" grid="1" gridSize="10" guides="1" tooltips="1" connect="1" arrows="1" fold="1" page="1" pageScale="1" pageWidth="827" pageHeight="1169" math="0" shadow="0">
      <root>
        <mxCell id="0" />
        <mxCell id="1" parent="0" />
        <mxCell id="2u2dYaNMbGm1rf29NnE4-1" value="Parent" style="image=img/lib/ibm/vpc/Instance.svg;imageVerticalAlign=bottom;fontStyle=0;verticalAlign=bottom;align=left;spacingLeft=32;spacingBottom=4;fillColor=#E6F0E2;rounded=0;whiteSpace=wrap;html=1;strokeColor=#00882B;strokeWidth=1;dashed=0;container=0;spacing=-4;collapsible=0;expand=0;recursiveResize=0;" parent="1" vertex="1">
          <mxGeometry x="-2120" y="320" width="120" height="120" as="geometry" />
        </mxCell>
        <mxCell id="2u2dYaNMbGm1rf29NnE4-2" value="" style="group" parent="1" vertex="1" connectable="0">
          <mxGeometry x="-1880" y="40" width="120" height="120" as="geometry" />
        </mxCell>
        <mxCell id="2u2dYaNMbGm1rf29NnE4-3" value="Child" style="image=img/lib/mscae/Kubernetes.svg;imageVerticalAlign=top;fontStyle=0;verticalAlign=top;align=left;spacingLeft=32;spacingTop=4;fillColor=#E8E8F0;rounded=0;whiteSpace=wrap;html=1;strokeColor=#2B2B88;strokeWidth=1;dashed=0;container=0;spacing=-4;collapsible=0;expand=0;recursiveResize=0;" parent="2u2dYaNMbGm1rf29NnE4-2" vertex="1">
          <mxGeometry width="120" height="120" as="geometry" />
        </mxCell>
        <mxCell id="2u2dYaNMbGm1rf29NnE4-4" value="" style="shape=image;aspect=fixed;image=data:image/svg+xml,PD94bWwgdmVyc2lvbj0iMS4wIiBlbmNvZGluZz0iVVRGLTgiIHN0YW5kYWxvbmU9Im5vIj8+CjwhLS0gQ3JlYXRlZCB3aXRoIElua3NjYXBlIChodHRwOi8vd3d3Lmlua3NjYXBlLm9yZy8pIC0tPgoKPHN2ZwogICB3aWR0aD0iMTc3LjhtbSIKICAgaGVpZ2h0PSIxNDYuMDVtbSIKICAgdmlld0JveD0iMCAwIDE3Ny44IDE0Ni4wNSIKICAgdmVyc2lvbj0iMS4xIgogICBpZD0ic3ZnMTg1OTMiCiAgIGlua3NjYXBlOnZlcnNpb249IjEuMi4yIChiMGE4NDg2NTQxLCAyMDIyLTEyLTAxKSIKICAgc29kaXBvZGk6ZG9jbmFtZT0ibG9nby1vbmx5LnN2ZyIKICAgeG1sbnM6aW5rc2NhcGU9Imh0dHA6Ly93d3cuaW5rc2NhcGUub3JnL25hbWVzcGFjZXMvaW5rc2NhcGUiCiAgIHhtbG5zOnNvZGlwb2RpPSJodHRwOi8vc29kaXBvZGkuc291cmNlZm9yZ2UubmV0L0RURC9zb2RpcG9kaS0wLmR0ZCIKICAgeG1sbnM9Imh0dHA6Ly93d3cudzMub3JnLzIwMDAvc3ZnIgogICB4bWxuczpzdmc9Imh0dHA6Ly93d3cudzMub3JnLzIwMDAvc3ZnIj4KICA8c29kaXBvZGk6bmFtZWR2aWV3CiAgICAgaWQ9Im5hbWVkdmlldzE4NTk1IgogICAgIHBhZ2Vjb2xvcj0iI2ZmZmZmZiIKICAgICBib3JkZXJjb2xvcj0iIzY2NjY2NiIKICAgICBib3JkZXJvcGFjaXR5PSIxLjAiCiAgICAgaW5rc2NhcGU6c2hvd3BhZ2VzaGFkb3c9IjIiCiAgICAgaW5rc2NhcGU6cGFnZW9wYWNpdHk9IjAuMCIKICAgICBpbmtzY2FwZTpwYWdlY2hlY2tlcmJvYXJkPSIwIgogICAgIGlua3NjYXBlOmRlc2tjb2xvcj0iI2QxZDFkMSIKICAgICBpbmtzY2FwZTpkb2N1bWVudC11bml0cz0ibW0iCiAgICAgc2hvd2dyaWQ9ImZhbHNlIgogICAgIGlua3NjYXBlOnpvb209IjAuOTE0OTA2IgogICAgIGlua3NjYXBlOmN4PSI0MjcuMzY2MzEiCiAgICAgaW5rc2NhcGU6Y3k9IjM2OC4zNDM4NSIKICAgICBpbmtzY2FwZTp3aW5kb3ctd2lkdGg9IjE3MTYiCiAgICAgaW5rc2NhcGU6d2luZG93LWhlaWdodD0iMTQwNSIKICAgICBpbmtzY2FwZTp3aW5kb3cteD0iMTcyMCIKICAgICBpbmtzY2FwZTp3aW5kb3cteT0iMCIKICAgICBpbmtzY2FwZTp3aW5kb3ctbWF4aW1pemVkPSIxIgogICAgIGlua3NjYXBlOmN1cnJlbnQtbGF5ZXI9ImxheWVyMSIgLz4KICA8ZGVmcwogICAgIGlkPSJkZWZzMTg1OTAiIC8+CiAgPGcKICAgICBpbmtzY2FwZTpsYWJlbD0iTGF5ZXIgMSIKICAgICBpbmtzY2FwZTpncm91cG1vZGU9ImxheWVyIgogICAgIGlkPSJsYXllcjEiCiAgICAgdHJhbnNmb3JtPSJ0cmFuc2xhdGUoOC4yMTU0ODA5LC01MS4zMjc0ODQpIj4KICAgIDxwYXRoCiAgICAgICBmaWxsLXJ1bGU9ImV2ZW5vZGQiCiAgICAgICBjbGlwLXJ1bGU9ImV2ZW5vZGQiCiAgICAgICBkPSJNIDEwMS4xNTQ1NCwxOTcuMzc3NDggSCA2NS4yODc4ODUgTCAtOC4yMTU0ODA5LDUxLjMyNzQ4NCBIIDk2LjEyMDU3NCBjIDQwLjU3MDE0NiwwLjA3Njc1IDczLjQ0MjUxNiwzMy45MjE0MzUgNzMuNDYzOTQ2LDc1LjY3MzQ3NiAtMC4wNjUxLDM4LjkwOTM2IC0zMC42NzA1LDcwLjM3NjUyIC02OC40Mjk5OCw3MC4zNzY1MiB6IgogICAgICAgZmlsbD0id2hpdGUiCiAgICAgICBpZD0icGF0aDExIgogICAgICAgc3R5bGU9ImZpbGw6IzAwYWI0NDtmaWxsLW9wYWNpdHk6MTtzdHJva2Utd2lkdGg6MC4yNjQ1ODMiIC8+CiAgPC9nPgo8L3N2Zz4K;" parent="2u2dYaNMbGm1rf29NnE4-2" vertex="1">
          <mxGeometry x="45" y="47.680000000000064" width="30" height="24.64" as="geometry" />
        </mxCell>
        <mxCell id="2u2dYaNMbGm1rf29NnE4-5" value="" style="group" parent="1" vertex="1" connectable="0">
          <mxGeometry x="-2120" y="80" width="120" height="120" as="geometry" />
        </mxCell>
        <mxCell id="2u2dYaNMbGm1rf29NnE4-6" value="" style="group" parent="2u2dYaNMbGm1rf29NnE4-5" vertex="1" connectable="0">
          <mxGeometry width="120" height="120" as="geometry" />
        </mxCell>
        <mxCell id="2u2dYaNMbGm1rf29NnE4-7" value="Parent" style="image=img/lib/ibm/vpc/Instance.svg;imageVerticalAlign=top;fontStyle=0;verticalAlign=top;align=left;spacingLeft=32;spacingTop=4;fillColor=#E6F0E2;rounded=0;whiteSpace=wrap;html=1;strokeColor=#00882B;strokeWidth=1;dashed=0;container=0;spacing=-4;collapsible=0;expand=0;recursiveResize=0;" parent="2u2dYaNMbGm1rf29NnE4-6" vertex="1">
          <mxGeometry width="120" height="120" as="geometry" />
        </mxCell>
        <mxCell id="2u2dYaNMbGm1rf29NnE4-8" value="" style="shape=image;aspect=fixed;image=data:image/svg+xml,PD94bWwgdmVyc2lvbj0iMS4wIiBlbmNvZGluZz0iVVRGLTgiIHN0YW5kYWxvbmU9Im5vIj8+CjwhLS0gQ3JlYXRlZCB3aXRoIElua3NjYXBlIChodHRwOi8vd3d3Lmlua3NjYXBlLm9yZy8pIC0tPgoKPHN2ZwogICB3aWR0aD0iMTc3LjhtbSIKICAgaGVpZ2h0PSIxNDYuMDVtbSIKICAgdmlld0JveD0iMCAwIDE3Ny44IDE0Ni4wNSIKICAgdmVyc2lvbj0iMS4xIgogICBpZD0ic3ZnMTg1OTMiCiAgIGlua3NjYXBlOnZlcnNpb249IjEuMi4yIChiMGE4NDg2NTQxLCAyMDIyLTEyLTAxKSIKICAgc29kaXBvZGk6ZG9jbmFtZT0ibG9nby1vbmx5LnN2ZyIKICAgeG1sbnM6aW5rc2NhcGU9Imh0dHA6Ly93d3cuaW5rc2NhcGUub3JnL25hbWVzcGFjZXMvaW5rc2NhcGUiCiAgIHhtbG5zOnNvZGlwb2RpPSJodHRwOi8vc29kaXBvZGkuc291cmNlZm9yZ2UubmV0L0RURC9zb2RpcG9kaS0wLmR0ZCIKICAgeG1sbnM9Imh0dHA6Ly93d3cudzMub3JnLzIwMDAvc3ZnIgogICB4bWxuczpzdmc9Imh0dHA6Ly93d3cudzMub3JnLzIwMDAvc3ZnIj4KICA8c29kaXBvZGk6bmFtZWR2aWV3CiAgICAgaWQ9Im5hbWVkdmlldzE4NTk1IgogICAgIHBhZ2Vjb2xvcj0iI2ZmZmZmZiIKICAgICBib3JkZXJjb2xvcj0iIzY2NjY2NiIKICAgICBib3JkZXJvcGFjaXR5PSIxLjAiCiAgICAgaW5rc2NhcGU6c2hvd3BhZ2VzaGFkb3c9IjIiCiAgICAgaW5rc2NhcGU6cGFnZW9wYWNpdHk9IjAuMCIKICAgICBpbmtzY2FwZTpwYWdlY2hlY2tlcmJvYXJkPSIwIgogICAgIGlua3NjYXBlOmRlc2tjb2xvcj0iI2QxZDFkMSIKICAgICBpbmtzY2FwZTpkb2N1bWVudC11bml0cz0ibW0iCiAgICAgc2hvd2dyaWQ9ImZhbHNlIgogICAgIGlua3NjYXBlOnpvb209IjAuOTE0OTA2IgogICAgIGlua3NjYXBlOmN4PSI0MjcuMzY2MzEiCiAgICAgaW5rc2NhcGU6Y3k9IjM2OC4zNDM4NSIKICAgICBpbmtzY2FwZTp3aW5kb3ctd2lkdGg9IjE3MTYiCiAgICAgaW5rc2NhcGU6d2luZG93LWhlaWdodD0iMTQwNSIKICAgICBpbmtzY2FwZTp3aW5kb3cteD0iMTcyMCIKICAgICBpbmtzY2FwZTp3aW5kb3cteT0iMCIKICAgICBpbmtzY2FwZTp3aW5kb3ctbWF4aW1pemVkPSIxIgogICAgIGlua3NjYXBlOmN1cnJlbnQtbGF5ZXI9ImxheWVyMSIgLz4KICA8ZGVmcwogICAgIGlkPSJkZWZzMTg1OTAiIC8+CiAgPGcKICAgICBpbmtzY2FwZTpsYWJlbD0iTGF5ZXIgMSIKICAgICBpbmtzY2FwZTpncm91cG1vZGU9ImxheWVyIgogICAgIGlkPSJsYXllcjEiCiAgICAgdHJhbnNmb3JtPSJ0cmFuc2xhdGUoOC4yMTU0ODA5LC01MS4zMjc0ODQpIj4KICAgIDxwYXRoCiAgICAgICBmaWxsLXJ1bGU9ImV2ZW5vZGQiCiAgICAgICBjbGlwLXJ1bGU9ImV2ZW5vZGQiCiAgICAgICBkPSJNIDEwMS4xNTQ1NCwxOTcuMzc3NDggSCA2NS4yODc4ODUgTCAtOC4yMTU0ODA5LDUxLjMyNzQ4NCBIIDk2LjEyMDU3NCBjIDQwLjU3MDE0NiwwLjA3Njc1IDczLjQ0MjUxNiwzMy45MjE0MzUgNzMuNDYzOTQ2LDc1LjY3MzQ3NiAtMC4wNjUxLDM4LjkwOTM2IC0zMC42NzA1LDcwLjM3NjUyIC02OC40Mjk5OCw3MC4zNzY1MiB6IgogICAgICAgZmlsbD0id2hpdGUiCiAgICAgICBpZD0icGF0aDExIgogICAgICAgc3R5bGU9ImZpbGw6IzAwYWI0NDtmaWxsLW9wYWNpdHk6MTtzdHJva2Utd2lkdGg6MC4yNjQ1ODMiIC8+CiAgPC9nPgo8L3N2Zz4K;" parent="2u2dYaNMbGm1rf29NnE4-6" vertex="1">
          <mxGeometry x="45" y="47.68000000000001" width="30" height="24.64" as="geometry" />
        </mxCell>
        <mxCell id="2u2dYaNMbGm1rf29NnE4-9" value="" style="group" parent="1" vertex="1" connectable="0">
          <mxGeometry x="-1880" y="360" width="120" height="120" as="geometry" />
        </mxCell>
        <mxCell id="2u2dYaNMbGm1rf29NnE4-10" value="Child" style="image=img/lib/mscae/Kubernetes.svg;imageVerticalAlign=top;fontStyle=0;verticalAlign=top;align=left;spacingLeft=32;spacingTop=4;fillColor=#E8E8F0;rounded=0;whiteSpace=wrap;html=1;strokeColor=#2B2B88;strokeWidth=1;dashed=0;container=0;spacing=-4;collapsible=0;expand=0;recursiveResize=0;" parent="2u2dYaNMbGm1rf29NnE4-9" vertex="1">
          <mxGeometry width="120" height="120" as="geometry" />
        </mxCell>
        <mxCell id="2u2dYaNMbGm1rf29NnE4-11" value="" style="shape=image;aspect=fixed;image=data:image/svg+xml,PD94bWwgdmVyc2lvbj0iMS4wIiBlbmNvZGluZz0iVVRGLTgiIHN0YW5kYWxvbmU9Im5vIj8+CjwhLS0gQ3JlYXRlZCB3aXRoIElua3NjYXBlIChodHRwOi8vd3d3Lmlua3NjYXBlLm9yZy8pIC0tPgoKPHN2ZwogICB3aWR0aD0iMTc3LjhtbSIKICAgaGVpZ2h0PSIxNDYuMDVtbSIKICAgdmlld0JveD0iMCAwIDE3Ny44IDE0Ni4wNSIKICAgdmVyc2lvbj0iMS4xIgogICBpZD0ic3ZnMTg1OTMiCiAgIGlua3NjYXBlOnZlcnNpb249IjEuMi4yIChiMGE4NDg2NTQxLCAyMDIyLTEyLTAxKSIKICAgc29kaXBvZGk6ZG9jbmFtZT0ibG9nby1vbmx5LnN2ZyIKICAgeG1sbnM6aW5rc2NhcGU9Imh0dHA6Ly93d3cuaW5rc2NhcGUub3JnL25hbWVzcGFjZXMvaW5rc2NhcGUiCiAgIHhtbG5zOnNvZGlwb2RpPSJodHRwOi8vc29kaXBvZGkuc291cmNlZm9yZ2UubmV0L0RURC9zb2RpcG9kaS0wLmR0ZCIKICAgeG1sbnM9Imh0dHA6Ly93d3cudzMub3JnLzIwMDAvc3ZnIgogICB4bWxuczpzdmc9Imh0dHA6Ly93d3cudzMub3JnLzIwMDAvc3ZnIj4KICA8c29kaXBvZGk6bmFtZWR2aWV3CiAgICAgaWQ9Im5hbWVkdmlldzE4NTk1IgogICAgIHBhZ2Vjb2xvcj0iI2ZmZmZmZiIKICAgICBib3JkZXJjb2xvcj0iIzY2NjY2NiIKICAgICBib3JkZXJvcGFjaXR5PSIxLjAiCiAgICAgaW5rc2NhcGU6c2hvd3BhZ2VzaGFkb3c9IjIiCiAgICAgaW5rc2NhcGU6cGFnZW9wYWNpdHk9IjAuMCIKICAgICBpbmtzY2FwZTpwYWdlY2hlY2tlcmJvYXJkPSIwIgogICAgIGlua3NjYXBlOmRlc2tjb2xvcj0iI2QxZDFkMSIKICAgICBpbmtzY2FwZTpkb2N1bWVudC11bml0cz0ibW0iCiAgICAgc2hvd2dyaWQ9ImZhbHNlIgogICAgIGlua3NjYXBlOnpvb209IjAuOTE0OTA2IgogICAgIGlua3NjYXBlOmN4PSI0MjcuMzY2MzEiCiAgICAgaW5rc2NhcGU6Y3k9IjM2OC4zNDM4NSIKICAgICBpbmtzY2FwZTp3aW5kb3ctd2lkdGg9IjE3MTYiCiAgICAgaW5rc2NhcGU6d2luZG93LWhlaWdodD0iMTQwNSIKICAgICBpbmtzY2FwZTp3aW5kb3cteD0iMTcyMCIKICAgICBpbmtzY2FwZTp3aW5kb3cteT0iMCIKICAgICBpbmtzY2FwZTp3aW5kb3ctbWF4aW1pemVkPSIxIgogICAgIGlua3NjYXBlOmN1cnJlbnQtbGF5ZXI9ImxheWVyMSIgLz4KICA8ZGVmcwogICAgIGlkPSJkZWZzMTg1OTAiIC8+CiAgPGcKICAgICBpbmtzY2FwZTpsYWJlbD0iTGF5ZXIgMSIKICAgICBpbmtzY2FwZTpncm91cG1vZGU9ImxheWVyIgogICAgIGlkPSJsYXllcjEiCiAgICAgdHJhbnNmb3JtPSJ0cmFuc2xhdGUoOC4yMTU0ODA5LC01MS4zMjc0ODQpIj4KICAgIDxwYXRoCiAgICAgICBmaWxsLXJ1bGU9ImV2ZW5vZGQiCiAgICAgICBjbGlwLXJ1bGU9ImV2ZW5vZGQiCiAgICAgICBkPSJNIDEwMS4xNTQ1NCwxOTcuMzc3NDggSCA2NS4yODc4ODUgTCAtOC4yMTU0ODA5LDUxLjMyNzQ4NCBIIDk2LjEyMDU3NCBjIDQwLjU3MDE0NiwwLjA3Njc1IDczLjQ0MjUxNiwzMy45MjE0MzUgNzMuNDYzOTQ2LDc1LjY3MzQ3NiAtMC4wNjUxLDM4LjkwOTM2IC0zMC42NzA1LDcwLjM3NjUyIC02OC40Mjk5OCw3MC4zNzY1MiB6IgogICAgICAgZmlsbD0id2hpdGUiCiAgICAgICBpZD0icGF0aDExIgogICAgICAgc3R5bGU9ImZpbGw6IzAwYWI0NDtmaWxsLW9wYWNpdHk6MTtzdHJva2Utd2lkdGg6MC4yNjQ1ODMiIC8+CiAgPC9nPgo8L3N2Zz4K;" parent="2u2dYaNMbGm1rf29NnE4-9" vertex="1">
          <mxGeometry x="45" y="47.680000000000064" width="30" height="24.64" as="geometry" />
        </mxCell>
        <mxCell id="2u2dYaNMbGm1rf29NnE4-12" value="" style="group" parent="1" vertex="1" connectable="0">
          <mxGeometry x="-1880" y="200" width="120" height="120" as="geometry" />
        </mxCell>
        <mxCell id="2u2dYaNMbGm1rf29NnE4-13" value="Child" style="image=img/lib/mscae/Kubernetes.svg;imageVerticalAlign=top;fontStyle=0;verticalAlign=top;align=left;spacingLeft=32;spacingTop=4;fillColor=#E8E8F0;rounded=0;whiteSpace=wrap;html=1;strokeColor=#2B2B88;strokeWidth=1;dashed=0;container=0;spacing=-4;collapsible=0;expand=0;recursiveResize=0;" parent="2u2dYaNMbGm1rf29NnE4-12" vertex="1">
          <mxGeometry width="120" height="120" as="geometry" />
        </mxCell>
        <mxCell id="2u2dYaNMbGm1rf29NnE4-14" value="" style="shape=image;aspect=fixed;image=data:image/svg+xml,PD94bWwgdmVyc2lvbj0iMS4wIiBlbmNvZGluZz0iVVRGLTgiIHN0YW5kYWxvbmU9Im5vIj8+CjwhLS0gQ3JlYXRlZCB3aXRoIElua3NjYXBlIChodHRwOi8vd3d3Lmlua3NjYXBlLm9yZy8pIC0tPgoKPHN2ZwogICB3aWR0aD0iMTc3LjhtbSIKICAgaGVpZ2h0PSIxNDYuMDVtbSIKICAgdmlld0JveD0iMCAwIDE3Ny44IDE0Ni4wNSIKICAgdmVyc2lvbj0iMS4xIgogICBpZD0ic3ZnMTg1OTMiCiAgIGlua3NjYXBlOnZlcnNpb249IjEuMi4yIChiMGE4NDg2NTQxLCAyMDIyLTEyLTAxKSIKICAgc29kaXBvZGk6ZG9jbmFtZT0ibG9nby1vbmx5LnN2ZyIKICAgeG1sbnM6aW5rc2NhcGU9Imh0dHA6Ly93d3cuaW5rc2NhcGUub3JnL25hbWVzcGFjZXMvaW5rc2NhcGUiCiAgIHhtbG5zOnNvZGlwb2RpPSJodHRwOi8vc29kaXBvZGkuc291cmNlZm9yZ2UubmV0L0RURC9zb2RpcG9kaS0wLmR0ZCIKICAgeG1sbnM9Imh0dHA6Ly93d3cudzMub3JnLzIwMDAvc3ZnIgogICB4bWxuczpzdmc9Imh0dHA6Ly93d3cudzMub3JnLzIwMDAvc3ZnIj4KICA8c29kaXBvZGk6bmFtZWR2aWV3CiAgICAgaWQ9Im5hbWVkdmlldzE4NTk1IgogICAgIHBhZ2Vjb2xvcj0iI2ZmZmZmZiIKICAgICBib3JkZXJjb2xvcj0iIzY2NjY2NiIKICAgICBib3JkZXJvcGFjaXR5PSIxLjAiCiAgICAgaW5rc2NhcGU6c2hvd3BhZ2VzaGFkb3c9IjIiCiAgICAgaW5rc2NhcGU6cGFnZW9wYWNpdHk9IjAuMCIKICAgICBpbmtzY2FwZTpwYWdlY2hlY2tlcmJvYXJkPSIwIgogICAgIGlua3NjYXBlOmRlc2tjb2xvcj0iI2QxZDFkMSIKICAgICBpbmtzY2FwZTpkb2N1bWVudC11bml0cz0ibW0iCiAgICAgc2hvd2dyaWQ9ImZhbHNlIgogICAgIGlua3NjYXBlOnpvb209IjAuOTE0OTA2IgogICAgIGlua3NjYXBlOmN4PSI0MjcuMzY2MzEiCiAgICAgaW5rc2NhcGU6Y3k9IjM2OC4zNDM4NSIKICAgICBpbmtzY2FwZTp3aW5kb3ctd2lkdGg9IjE3MTYiCiAgICAgaW5rc2NhcGU6d2luZG93LWhlaWdodD0iMTQwNSIKICAgICBpbmtzY2FwZTp3aW5kb3cteD0iMTcyMCIKICAgICBpbmtzY2FwZTp3aW5kb3cteT0iMCIKICAgICBpbmtzY2FwZTp3aW5kb3ctbWF4aW1pemVkPSIxIgogICAgIGlua3NjYXBlOmN1cnJlbnQtbGF5ZXI9ImxheWVyMSIgLz4KICA8ZGVmcwogICAgIGlkPSJkZWZzMTg1OTAiIC8+CiAgPGcKICAgICBpbmtzY2FwZTpsYWJlbD0iTGF5ZXIgMSIKICAgICBpbmtzY2FwZTpncm91cG1vZGU9ImxheWVyIgogICAgIGlkPSJsYXllcjEiCiAgICAgdHJhbnNmb3JtPSJ0cmFuc2xhdGUoOC4yMTU0ODA5LC01MS4zMjc0ODQpIj4KICAgIDxwYXRoCiAgICAgICBmaWxsLXJ1bGU9ImV2ZW5vZGQiCiAgICAgICBjbGlwLXJ1bGU9ImV2ZW5vZGQiCiAgICAgICBkPSJNIDEwMS4xNTQ1NCwxOTcuMzc3NDggSCA2NS4yODc4ODUgTCAtOC4yMTU0ODA5LDUxLjMyNzQ4NCBIIDk2LjEyMDU3NCBjIDQwLjU3MDE0NiwwLjA3Njc1IDczLjQ0MjUxNiwzMy45MjE0MzUgNzMuNDYzOTQ2LDc1LjY3MzQ3NiAtMC4wNjUxLDM4LjkwOTM2IC0zMC42NzA1LDcwLjM3NjUyIC02OC40Mjk5OCw3MC4zNzY1MiB6IgogICAgICAgZmlsbD0id2hpdGUiCiAgICAgICBpZD0icGF0aDExIgogICAgICAgc3R5bGU9ImZpbGw6IzAwYWI0NDtmaWxsLW9wYWNpdHk6MTtzdHJva2Utd2lkdGg6MC4yNjQ1ODMiIC8+CiAgPC9nPgo8L3N2Zz4K;" parent="2u2dYaNMbGm1rf29NnE4-12" vertex="1">
          <mxGeometry x="45" y="47.680000000000064" width="30" height="24.64" as="geometry" />
        </mxCell>
        <mxCell id="2u2dYaNMbGm1rf29NnE4-15" value="" style="edgeStyle=elbowEdgeStyle;elbow=horizontal;endArrow=classic;html=1;exitX=0;exitY=0.25;exitDx=0;exitDy=0;entryX=1;entryY=0.25;entryDx=0;entryDy=0;" parent="1" source="2u2dYaNMbGm1rf29NnE4-4" target="2u2dYaNMbGm1rf29NnE4-8" edge="1">
          <mxGeometry width="50" height="50" relative="1" as="geometry">
            <mxPoint x="-2075" y="100" as="sourcePoint" />
            <mxPoint x="-2090" y="230" as="targetPoint" />
            <Array as="points">
              <mxPoint x="-1980" y="134" />
              <mxPoint x="-1920" y="130" />
              <mxPoint x="-1920" y="170" />
              <mxPoint x="-1970" y="180" />
            </Array>
          </mxGeometry>
        </mxCell>
        <mxCell id="2u2dYaNMbGm1rf29NnE4-16" value="" style="ellipse;shape=cloud;whiteSpace=wrap;html=1;" parent="1" vertex="1">
          <mxGeometry x="-2440" y="200" width="200" height="120" as="geometry" />
        </mxCell>
        <mxCell id="2u2dYaNMbGm1rf29NnE4-17" value="" style="shape=image;aspect=fixed;image=data:image/svg+xml,PD94bWwgdmVyc2lvbj0iMS4wIiBlbmNvZGluZz0iVVRGLTgiIHN0YW5kYWxvbmU9Im5vIj8+CjwhLS0gQ3JlYXRlZCB3aXRoIElua3NjYXBlIChodHRwOi8vd3d3Lmlua3NjYXBlLm9yZy8pIC0tPgoKPHN2ZwogICB3aWR0aD0iMTc3LjhtbSIKICAgaGVpZ2h0PSIxNDYuMDVtbSIKICAgdmlld0JveD0iMCAwIDE3Ny44IDE0Ni4wNSIKICAgdmVyc2lvbj0iMS4xIgogICBpZD0ic3ZnMTg1OTMiCiAgIGlua3NjYXBlOnZlcnNpb249IjEuMi4yIChiMGE4NDg2NTQxLCAyMDIyLTEyLTAxKSIKICAgc29kaXBvZGk6ZG9jbmFtZT0ibG9nby1vbmx5LnN2ZyIKICAgeG1sbnM6aW5rc2NhcGU9Imh0dHA6Ly93d3cuaW5rc2NhcGUub3JnL25hbWVzcGFjZXMvaW5rc2NhcGUiCiAgIHhtbG5zOnNvZGlwb2RpPSJodHRwOi8vc29kaXBvZGkuc291cmNlZm9yZ2UubmV0L0RURC9zb2RpcG9kaS0wLmR0ZCIKICAgeG1sbnM9Imh0dHA6Ly93d3cudzMub3JnLzIwMDAvc3ZnIgogICB4bWxuczpzdmc9Imh0dHA6Ly93d3cudzMub3JnLzIwMDAvc3ZnIj4KICA8c29kaXBvZGk6bmFtZWR2aWV3CiAgICAgaWQ9Im5hbWVkdmlldzE4NTk1IgogICAgIHBhZ2Vjb2xvcj0iI2ZmZmZmZiIKICAgICBib3JkZXJjb2xvcj0iIzY2NjY2NiIKICAgICBib3JkZXJvcGFjaXR5PSIxLjAiCiAgICAgaW5rc2NhcGU6c2hvd3BhZ2VzaGFkb3c9IjIiCiAgICAgaW5rc2NhcGU6cGFnZW9wYWNpdHk9IjAuMCIKICAgICBpbmtzY2FwZTpwYWdlY2hlY2tlcmJvYXJkPSIwIgogICAgIGlua3NjYXBlOmRlc2tjb2xvcj0iI2QxZDFkMSIKICAgICBpbmtzY2FwZTpkb2N1bWVudC11bml0cz0ibW0iCiAgICAgc2hvd2dyaWQ9ImZhbHNlIgogICAgIGlua3NjYXBlOnpvb209IjAuOTE0OTA2IgogICAgIGlua3NjYXBlOmN4PSI0MjcuMzY2MzEiCiAgICAgaW5rc2NhcGU6Y3k9IjM2OC4zNDM4NSIKICAgICBpbmtzY2FwZTp3aW5kb3ctd2lkdGg9IjE3MTYiCiAgICAgaW5rc2NhcGU6d2luZG93LWhlaWdodD0iMTQwNSIKICAgICBpbmtzY2FwZTp3aW5kb3cteD0iMTcyMCIKICAgICBpbmtzY2FwZTp3aW5kb3cteT0iMCIKICAgICBpbmtzY2FwZTp3aW5kb3ctbWF4aW1pemVkPSIxIgogICAgIGlua3NjYXBlOmN1cnJlbnQtbGF5ZXI9ImxheWVyMSIgLz4KICA8ZGVmcwogICAgIGlkPSJkZWZzMTg1OTAiIC8+CiAgPGcKICAgICBpbmtzY2FwZTpsYWJlbD0iTGF5ZXIgMSIKICAgICBpbmtzY2FwZTpncm91cG1vZGU9ImxheWVyIgogICAgIGlkPSJsYXllcjEiCiAgICAgdHJhbnNmb3JtPSJ0cmFuc2xhdGUoOC4yMTU0ODA5LC01MS4zMjc0ODQpIj4KICAgIDxwYXRoCiAgICAgICBmaWxsLXJ1bGU9ImV2ZW5vZGQiCiAgICAgICBjbGlwLXJ1bGU9ImV2ZW5vZGQiCiAgICAgICBkPSJNIDEwMS4xNTQ1NCwxOTcuMzc3NDggSCA2NS4yODc4ODUgTCAtOC4yMTU0ODA5LDUxLjMyNzQ4NCBIIDk2LjEyMDU3NCBjIDQwLjU3MDE0NiwwLjA3Njc1IDczLjQ0MjUxNiwzMy45MjE0MzUgNzMuNDYzOTQ2LDc1LjY3MzQ3NiAtMC4wNjUxLDM4LjkwOTM2IC0zMC42NzA1LDcwLjM3NjUyIC02OC40Mjk5OCw3MC4zNzY1MiB6IgogICAgICAgZmlsbD0id2hpdGUiCiAgICAgICBpZD0icGF0aDExIgogICAgICAgc3R5bGU9ImZpbGw6IzAwYWI0NDtmaWxsLW9wYWNpdHk6MTtzdHJva2Utd2lkdGg6MC4yNjQ1ODMiIC8+CiAgPC9nPgo8L3N2Zz4K;" parent="1" vertex="1">
          <mxGeometry x="-2355" y="260" width="30" height="24.64" as="geometry" />
        </mxCell>
        <UserObject label="Netdata Cloud" placeholders="1" name="Variable" id="2u2dYaNMbGm1rf29NnE4-18">
          <mxCell style="text;html=1;strokeColor=none;fillColor=none;align=center;verticalAlign=middle;whiteSpace=wrap;overflow=hidden;" parent="1" vertex="1">
            <mxGeometry x="-2380" y="230" width="80" height="20" as="geometry" />
          </mxCell>
        </UserObject>
        <mxCell id="2u2dYaNMbGm1rf29NnE4-19" value="" style="edgeStyle=elbowEdgeStyle;elbow=horizontal;endArrow=classic;html=1;exitX=0;exitY=0.25;exitDx=0;exitDy=0;entryX=1;entryY=0.5;entryDx=0;entryDy=0;" parent="1" source="2u2dYaNMbGm1rf29NnE4-14" target="2u2dYaNMbGm1rf29NnE4-8" edge="1">
          <mxGeometry width="50" height="50" relative="1" as="geometry">
            <mxPoint x="-1835" y="260" as="sourcePoint" />
            <mxPoint x="-2130" y="390" as="targetPoint" />
            <Array as="points">
              <mxPoint x="-1920" y="200" />
              <mxPoint x="-1960" y="320" />
            </Array>
          </mxGeometry>
        </mxCell>
        <mxCell id="2u2dYaNMbGm1rf29NnE4-20" value="" style="edgeStyle=elbowEdgeStyle;elbow=horizontal;endArrow=classic;html=1;exitX=0;exitY=0.25;exitDx=0;exitDy=0;entryX=1;entryY=0.75;entryDx=0;entryDy=0;" parent="1" source="2u2dYaNMbGm1rf29NnE4-11" target="2u2dYaNMbGm1rf29NnE4-8" edge="1">
          <mxGeometry width="50" height="50" relative="1" as="geometry">
            <mxPoint x="-1835" y="420.00000000000045" as="sourcePoint" />
            <mxPoint x="-2240" y="290" as="targetPoint" />
            <Array as="points">
              <mxPoint x="-1940" y="280" />
              <mxPoint x="-1960" y="280" />
            </Array>
          </mxGeometry>
        </mxCell>
        <mxCell id="2u2dYaNMbGm1rf29NnE4-21" value="" style="edgeStyle=elbowEdgeStyle;elbow=horizontal;endArrow=classic;html=1;exitX=0;exitY=0.5;exitDx=0;exitDy=0;entryX=0.88;entryY=0.25;entryDx=0;entryDy=0;entryPerimeter=0;" parent="1" source="2u2dYaNMbGm1rf29NnE4-8" target="2u2dYaNMbGm1rf29NnE4-16" edge="1">
          <mxGeometry width="50" height="50" relative="1" as="geometry">
            <mxPoint x="-2100" y="260" as="sourcePoint" />
            <mxPoint x="-2260" y="260" as="targetPoint" />
            <Array as="points">
              <mxPoint x="-2160" y="210" />
            </Array>
          </mxGeometry>
        </mxCell>
        <mxCell id="2u2dYaNMbGm1rf29NnE4-22" value="" style="edgeStyle=elbowEdgeStyle;elbow=horizontal;endArrow=classic;html=1;exitX=0;exitY=0.5;exitDx=0;exitDy=0;entryX=0.96;entryY=0.7;entryDx=0;entryDy=0;entryPerimeter=0;" parent="1" source="2u2dYaNMbGm1rf29NnE4-28" target="2u2dYaNMbGm1rf29NnE4-16" edge="1">
          <mxGeometry width="50" height="50" relative="1" as="geometry">
            <mxPoint x="-2065" y="190.00000000000045" as="sourcePoint" />
            <mxPoint x="-2254" y="240" as="targetPoint" />
          </mxGeometry>
        </mxCell>
        <mxCell id="2u2dYaNMbGm1rf29NnE4-23" value="" style="edgeStyle=elbowEdgeStyle;elbow=horizontal;endArrow=classic;html=1;entryX=1;entryY=0.25;entryDx=0;entryDy=0;dashed=1;dashPattern=1 3" parent="1" target="2u2dYaNMbGm1rf29NnE4-28" edge="1">
          <mxGeometry width="50" height="50" relative="1" as="geometry">
            <mxPoint x="-1830" y="110" as="sourcePoint" />
            <mxPoint x="-2035" y="143.84000000000015" as="targetPoint" />
            <Array as="points">
              <mxPoint x="-1960" y="240" />
              <mxPoint x="-1920" y="140" />
              <mxPoint x="-1910" y="180" />
              <mxPoint x="-1960" y="190" />
            </Array>
          </mxGeometry>
        </mxCell>
        <mxCell id="2u2dYaNMbGm1rf29NnE4-24" value="" style="edgeStyle=elbowEdgeStyle;elbow=horizontal;endArrow=classic;html=1;entryX=1;entryY=0.5;entryDx=0;entryDy=0;dashed=1;dashPattern=1 3;exitX=0;exitY=0.75;exitDx=0;exitDy=0;" parent="1" source="2u2dYaNMbGm1rf29NnE4-14" target="2u2dYaNMbGm1rf29NnE4-28" edge="1">
          <mxGeometry width="50" height="50" relative="1" as="geometry">
            <mxPoint x="-1820" y="120" as="sourcePoint" />
            <mxPoint x="-2035" y="383.8400000000006" as="targetPoint" />
            <Array as="points">
              <mxPoint x="-1920" y="320" />
              <mxPoint x="-1910" y="150" />
              <mxPoint x="-1900" y="190" />
              <mxPoint x="-1950" y="200" />
            </Array>
          </mxGeometry>
        </mxCell>
        <mxCell id="2u2dYaNMbGm1rf29NnE4-25" value="" style="edgeStyle=elbowEdgeStyle;elbow=horizontal;endArrow=classic;html=1;entryX=1;entryY=0.75;entryDx=0;entryDy=0;dashed=1;dashPattern=1 3;exitX=0;exitY=0.75;exitDx=0;exitDy=0;" parent="1" source="2u2dYaNMbGm1rf29NnE4-11" target="2u2dYaNMbGm1rf29NnE4-28" edge="1">
          <mxGeometry width="50" height="50" relative="1" as="geometry">
            <mxPoint x="-1825" y="276.1600000000001" as="sourcePoint" />
            <mxPoint x="-2035" y="390.00000000000045" as="targetPoint" />
            <Array as="points">
              <mxPoint x="-1960" y="410" />
              <mxPoint x="-1900" y="160" />
              <mxPoint x="-1890" y="200" />
              <mxPoint x="-1940" y="210" />
            </Array>
          </mxGeometry>
        </mxCell>
        <mxCell id="2u2dYaNMbGm1rf29NnE4-26" value="" style="edgeStyle=elbowEdgeStyle;elbow=horizontal;endArrow=classic;html=1;exitX=0.25;exitY=0;exitDx=0;exitDy=0;entryX=0.25;entryY=1;entryDx=0;entryDy=0;" parent="1" source="2u2dYaNMbGm1rf29NnE4-28" target="2u2dYaNMbGm1rf29NnE4-8" edge="1">
          <mxGeometry width="50" height="50" relative="1" as="geometry">
            <mxPoint x="-1825" y="103.84000000000015" as="sourcePoint" />
            <mxPoint x="-2035" y="143.84000000000015" as="targetPoint" />
            <Array as="points">
              <mxPoint x="-2067" y="250" />
              <mxPoint x="-1910" y="140" />
              <mxPoint x="-1910" y="180" />
              <mxPoint x="-1960" y="190" />
            </Array>
          </mxGeometry>
        </mxCell>
        <mxCell id="2u2dYaNMbGm1rf29NnE4-27" value="" style="edgeStyle=elbowEdgeStyle;elbow=horizontal;endArrow=classic;html=1;exitX=0.75;exitY=1;exitDx=0;exitDy=0;entryX=0.75;entryY=0;entryDx=0;entryDy=0;" parent="1" source="2u2dYaNMbGm1rf29NnE4-8" target="2u2dYaNMbGm1rf29NnE4-28" edge="1">
          <mxGeometry width="50" height="50" relative="1" as="geometry">
            <mxPoint x="-2057.5" y="377.6800000000003" as="sourcePoint" />
            <mxPoint x="-1990" y="240" as="targetPoint" />
            <Array as="points">
              <mxPoint x="-2052" y="250" />
              <mxPoint x="-1900" y="190" />
              <mxPoint x="-1950" y="200" />
            </Array>
          </mxGeometry>
        </mxCell>
        <mxCell id="2u2dYaNMbGm1rf29NnE4-28" value="" style="shape=image;aspect=fixed;image=data:image/svg+xml,PD94bWwgdmVyc2lvbj0iMS4wIiBlbmNvZGluZz0iVVRGLTgiIHN0YW5kYWxvbmU9Im5vIj8+CjwhLS0gQ3JlYXRlZCB3aXRoIElua3NjYXBlIChodHRwOi8vd3d3Lmlua3NjYXBlLm9yZy8pIC0tPgoKPHN2ZwogICB3aWR0aD0iMTc3LjhtbSIKICAgaGVpZ2h0PSIxNDYuMDVtbSIKICAgdmlld0JveD0iMCAwIDE3Ny44IDE0Ni4wNSIKICAgdmVyc2lvbj0iMS4xIgogICBpZD0ic3ZnMTg1OTMiCiAgIGlua3NjYXBlOnZlcnNpb249IjEuMi4yIChiMGE4NDg2NTQxLCAyMDIyLTEyLTAxKSIKICAgc29kaXBvZGk6ZG9jbmFtZT0ibG9nby1vbmx5LnN2ZyIKICAgeG1sbnM6aW5rc2NhcGU9Imh0dHA6Ly93d3cuaW5rc2NhcGUub3JnL25hbWVzcGFjZXMvaW5rc2NhcGUiCiAgIHhtbG5zOnNvZGlwb2RpPSJodHRwOi8vc29kaXBvZGkuc291cmNlZm9yZ2UubmV0L0RURC9zb2RpcG9kaS0wLmR0ZCIKICAgeG1sbnM9Imh0dHA6Ly93d3cudzMub3JnLzIwMDAvc3ZnIgogICB4bWxuczpzdmc9Imh0dHA6Ly93d3cudzMub3JnLzIwMDAvc3ZnIj4KICA8c29kaXBvZGk6bmFtZWR2aWV3CiAgICAgaWQ9Im5hbWVkdmlldzE4NTk1IgogICAgIHBhZ2Vjb2xvcj0iI2ZmZmZmZiIKICAgICBib3JkZXJjb2xvcj0iIzY2NjY2NiIKICAgICBib3JkZXJvcGFjaXR5PSIxLjAiCiAgICAgaW5rc2NhcGU6c2hvd3BhZ2VzaGFkb3c9IjIiCiAgICAgaW5rc2NhcGU6cGFnZW9wYWNpdHk9IjAuMCIKICAgICBpbmtzY2FwZTpwYWdlY2hlY2tlcmJvYXJkPSIwIgogICAgIGlua3NjYXBlOmRlc2tjb2xvcj0iI2QxZDFkMSIKICAgICBpbmtzY2FwZTpkb2N1bWVudC11bml0cz0ibW0iCiAgICAgc2hvd2dyaWQ9ImZhbHNlIgogICAgIGlua3NjYXBlOnpvb209IjAuOTE0OTA2IgogICAgIGlua3NjYXBlOmN4PSI0MjcuMzY2MzEiCiAgICAgaW5rc2NhcGU6Y3k9IjM2OC4zNDM4NSIKICAgICBpbmtzY2FwZTp3aW5kb3ctd2lkdGg9IjE3MTYiCiAgICAgaW5rc2NhcGU6d2luZG93LWhlaWdodD0iMTQwNSIKICAgICBpbmtzY2FwZTp3aW5kb3cteD0iMTcyMCIKICAgICBpbmtzY2FwZTp3aW5kb3cteT0iMCIKICAgICBpbmtzY2FwZTp3aW5kb3ctbWF4aW1pemVkPSIxIgogICAgIGlua3NjYXBlOmN1cnJlbnQtbGF5ZXI9ImxheWVyMSIgLz4KICA8ZGVmcwogICAgIGlkPSJkZWZzMTg1OTAiIC8+CiAgPGcKICAgICBpbmtzY2FwZTpsYWJlbD0iTGF5ZXIgMSIKICAgICBpbmtzY2FwZTpncm91cG1vZGU9ImxheWVyIgogICAgIGlkPSJsYXllcjEiCiAgICAgdHJhbnNmb3JtPSJ0cmFuc2xhdGUoOC4yMTU0ODA5LC01MS4zMjc0ODQpIj4KICAgIDxwYXRoCiAgICAgICBmaWxsLXJ1bGU9ImV2ZW5vZGQiCiAgICAgICBjbGlwLXJ1bGU9ImV2ZW5vZGQiCiAgICAgICBkPSJNIDEwMS4xNTQ1NCwxOTcuMzc3NDggSCA2NS4yODc4ODUgTCAtOC4yMTU0ODA5LDUxLjMyNzQ4NCBIIDk2LjEyMDU3NCBjIDQwLjU3MDE0NiwwLjA3Njc1IDczLjQ0MjUxNiwzMy45MjE0MzUgNzMuNDYzOTQ2LDc1LjY3MzQ3NiAtMC4wNjUxLDM4LjkwOTM2IC0zMC42NzA1LDcwLjM3NjUyIC02OC40Mjk5OCw3MC4zNzY1MiB6IgogICAgICAgZmlsbD0id2hpdGUiCiAgICAgICBpZD0icGF0aDExIgogICAgICAgc3R5bGU9ImZpbGw6IzAwYWI0NDtmaWxsLW9wYWNpdHk6MTtzdHJva2Utd2lkdGg6MC4yNjQ1ODMiIC8+CiAgPC9nPgo8L3N2Zz4K;" parent="1" vertex="1">
          <mxGeometry x="-2075" y="367.68000000000006" width="30" height="24.64" as="geometry" />
        </mxCell>
        <mxCell id="QEZQeNdzObi8i7UJ0P2z-1" value="" style="rounded=0;whiteSpace=wrap;html=1;fillColor=none;strokeColor=none;" vertex="1" parent="1">
          <mxGeometry x="-2450" y="20" width="710" height="480" as="geometry" />
        </mxCell>
      </root>
    </mxGraphModel>
  </diagram>
</mxfile>
